ply
format ascii 1.0
comment Created by Blender 2.69 (sub 0) - www.blender.org, source file: ''
element vertex 13
property float x
property float y
property float z
element face 22
property list uchar uint vertex_indices
end_header
3.394819 0.057570 -0.098101
3.826635 -0.137060 -0.097176
3.391958 -0.330806 -0.096591
-1.643449 -0.146839 -0.121818
-0.633283 0.185110 -0.121029
-0.628730 -0.419447 -0.120470
3.826139 -0.136863 -0.011081
-0.633779 0.185307 0.021567
-0.629226 -0.419250 0.022127
3.394323 0.057767 0.044496
3.391462 -0.330609 0.046006
-0.631503 -0.116971 0.190985
-1.643945 -0.146642 0.020778
3 0 1 2
3 3 4 5
3 2 1 6
3 4 3 7
3 3 5 8
3 1 0 6
3 5 2 8
3 0 4 7
3 9 10 6
3 10 9 11
3 8 10 11
3 11 7 9
3 8 11 12
3 7 12 11
3 4 0 5
3 0 2 5
3 10 2 6
3 3 12 7
3 12 3 8
3 0 9 6
3 2 10 8
3 9 0 7
