ply
format ascii 1.0
comment Created by Blender 2.69 (sub 0) - www.blender.org, source file: ''
element vertex 128
property float x
property float y
property float z
element face 256
property list uchar uint vertex_indices
end_header
-1.160830 -0.004831 -0.000167
-0.250136 -0.004831 -0.000167
-0.947244 -0.194472 -0.000167
0.378135 -0.902900 -0.000167
0.104215 -0.241601 -0.000167
0.148522 -0.217918 -0.000167
0.546192 0.803411 -0.000167
0.148522 0.208257 -0.000167
0.378134 0.893240 -0.000167
-0.891929 0.367162 -0.000167
-0.230628 0.093243 -0.000167
-0.245212 0.045167 -0.000167
0.006142 -1.171802 -0.000167
0.006142 -0.261109 -0.000167
0.195782 -0.958216 -0.000167
0.976444 0.643505 -0.000167
0.219229 0.137550 -0.000167
0.831316 0.820343 -0.000167
-0.043855 -0.256184 -0.000167
-0.221521 -1.149380 -0.000167
-0.819033 0.820343 -0.000167
-0.175074 0.176385 -0.000167
-0.802100 0.535219 -0.000167
0.959528 0.184810 -0.000167
0.257496 0.045167 -0.000167
0.242912 0.093243 -0.000167
-0.533907 -0.813073 -0.000167
-0.136238 -0.217918 -0.000167
-0.365850 -0.902901 -0.000167
-0.365851 0.893239 -0.000167
-0.091932 0.231939 -0.000167
-0.136239 0.208257 -0.000167
1.150691 -0.232495 -0.000167
0.257496 -0.054828 -0.000167
0.262420 -0.004831 -0.000167
-0.964159 -0.653166 -0.000167
-0.206945 -0.147211 -0.000167
-0.819031 -0.830005 -0.000167
0.006141 1.162142 -0.000167
0.006142 0.251447 -0.000167
-0.183499 0.948556 -0.000167
0.814384 -0.544880 -0.000167
0.219229 -0.147211 -0.000167
0.242912 -0.102904 -0.000167
-0.245212 -0.054828 -0.000167
-0.230628 -0.102904 -0.000167
0.654477 -0.975132 -0.000167
0.187358 -0.186046 -0.000167
0.104215 0.231940 -0.000167
0.056139 0.246523 -0.000167
-1.138407 0.222834 -0.000167
0.056139 -0.256184 -0.000167
0.187358 0.176385 -0.000167
-0.206946 0.137550 -0.000167
0.904212 0.367162 -0.000167
-0.091931 -0.241601 -0.000167
-0.642194 0.965471 -0.000167
1.173114 -0.004830 -0.000167
-0.175074 -0.186047 -0.000167
-0.043856 0.246523 -0.000167
0.904212 -0.376823 -0.000167
-0.891928 -0.376824 -0.000167
0.831316 -0.830004 -0.000167
0.233806 1.139719 -0.000167
-1.160830 -0.004831 0.557949
-0.947244 -0.194472 0.557949
-0.250136 -0.004831 0.557949
0.378135 -0.902900 0.557949
0.654477 -0.975132 0.557949
0.148522 -0.217918 0.557949
0.546192 0.803411 0.557949
0.378134 0.893240 0.557949
0.104215 0.231940 0.557949
-0.891929 0.367162 0.557949
-1.138407 0.222834 0.557949
-0.245212 0.045167 0.557949
0.006142 -1.171802 0.557949
0.195782 -0.958216 0.557949
0.006142 -0.261109 0.557949
0.976444 0.643505 0.557949
0.831316 0.820343 0.557949
0.219229 0.137550 0.557949
-0.221521 -1.149380 0.557949
-0.043855 -0.256184 0.557949
-0.819033 0.820343 0.557949
-0.802100 0.535219 0.557949
-0.175074 0.176385 0.557949
0.959528 0.184810 0.557949
0.904212 0.367162 0.557949
0.242912 0.093243 0.557949
-0.533907 -0.813073 0.557949
-0.365850 -0.902901 0.557949
-0.091931 -0.241601 0.557949
-0.365851 0.893239 0.557949
-0.642194 0.965471 0.557949
-0.136239 0.208257 0.557949
1.150691 -0.232495 0.557949
1.173114 -0.004830 0.557949
0.262420 -0.004831 0.557949
-0.964159 -0.653166 0.557949
-0.819031 -0.830005 0.557949
-0.206945 -0.147211 0.557949
0.006141 1.162142 0.557949
-0.183499 0.948556 0.557949
0.006142 0.251447 0.557949
0.814384 -0.544880 0.557949
0.904212 -0.376823 0.557949
0.242912 -0.102904 0.557949
-0.891928 -0.376824 0.557949
-0.245212 -0.054828 0.557949
0.831316 -0.830004 0.557949
0.233806 1.139719 0.557949
0.056139 0.246523 0.557949
0.056139 -0.256184 0.557949
0.187358 0.176385 0.557949
-0.230628 0.093243 0.557949
-0.175074 -0.186047 0.557949
-0.091932 0.231939 0.557949
0.257496 -0.054828 0.557949
0.187358 -0.186046 0.557949
0.257496 0.045167 0.557949
-0.043856 0.246523 0.557949
-0.230628 -0.102904 0.557949
0.219229 -0.147211 0.557949
-0.206946 0.137550 0.557949
0.148522 0.208257 0.557949
-0.136238 -0.217918 0.557949
0.104215 -0.241601 0.557949
3 0 1 2
3 3 4 5
3 6 7 8
3 9 10 11
3 12 13 14
3 15 16 17
3 18 12 19
3 20 21 22
3 23 24 25
3 26 27 28
3 29 30 31
3 32 33 34
3 35 36 37
3 38 39 40
3 41 42 43
3 2 44 45
3 46 5 47
3 8 48 49
3 50 11 1
3 14 51 4
3 17 52 6
3 22 53 9
3 54 25 16
3 28 55 18
3 56 31 21
3 57 34 23
3 37 58 26
3 40 59 29
3 60 43 33
3 61 45 36
3 62 47 41
3 63 49 38
3 64 65 66
3 67 68 69
3 70 71 72
3 73 74 75
3 76 77 78
3 79 80 81
3 82 76 83
3 84 85 86
3 87 88 89
3 90 91 92
3 93 94 95
3 96 97 98
3 99 100 101
3 102 103 104
3 105 106 107
3 65 108 109
3 68 110 69
3 71 111 112
3 74 64 66
3 77 67 113
3 80 70 114
3 85 73 115
3 88 79 81
3 91 82 83
3 94 84 86
3 97 87 98
3 100 90 116
3 103 93 117
3 106 96 118
3 108 99 101
3 110 105 119
3 111 102 112
3 11 10 115
3 40 29 103
3 51 13 78
3 54 15 88
3 39 49 112
3 18 55 92
3 2 61 108
3 46 62 110
3 24 34 120
3 1 11 75
3 29 56 93
3 4 51 113
3 59 39 104
3 15 17 80
3 13 18 83
3 61 35 108
3 25 24 120
3 62 41 105
3 44 1 66
3 56 20 94
3 5 4 69
3 17 6 70
3 30 59 121
3 35 37 100
3 41 60 106
3 16 25 89
3 45 44 109
3 20 22 85
3 47 5 69
3 6 8 71
3 31 30 117
3 37 26 90
3 60 32 96
3 52 16 81
3 36 45 122
3 22 9 73
3 42 47 119
3 8 63 111
3 21 31 95
3 26 28 91
3 32 57 97
3 7 52 114
3 58 36 101
3 9 50 73
3 12 14 76
3 43 42 123
3 53 21 124
3 63 38 102
3 28 19 82
3 57 23 87
3 48 7 125
3 27 58 126
3 50 0 64
3 14 3 67
3 33 43 107
3 10 53 124
3 38 40 102
3 19 12 76
3 23 54 87
3 49 48 72
3 55 27 126
3 0 2 64
3 3 46 68
3 34 33 118
3 1 44 2
3 46 3 5
3 100 116 101
3 50 9 11
3 13 51 14
3 27 55 28
3 56 94 93
3 21 53 22
3 54 23 25
3 110 119 69
3 56 29 31
3 57 32 34
3 108 122 109
3 39 59 40
3 60 41 43
3 61 2 45
3 62 46 47
3 63 8 49
3 0 50 1
3 3 14 4
3 52 7 6
3 80 114 81
3 15 54 16
3 19 28 18
3 20 56 21
3 34 24 23
3 58 27 26
3 53 10 9
3 32 60 33
3 35 61 36
3 47 42 41
3 67 127 113
3 65 109 66
3 127 67 69
3 125 70 72
3 115 73 75
3 77 113 78
3 49 39 38
3 59 30 29
3 85 124 86
3 120 87 89
3 126 90 92
3 117 93 95
3 118 96 98
3 76 78 83
3 103 121 104
3 123 105 107
3 40 103 102
3 35 99 108
3 72 71 112
3 75 74 66
3 4 127 69
3 70 125 114
3 124 85 115
3 89 88 81
3 92 91 83
3 95 94 86
3 87 120 98
3 90 126 116
3 121 103 117
3 107 106 118
3 122 108 101
3 105 123 119
3 7 48 8
3 75 11 115
3 16 52 17
3 113 51 78
3 13 12 18
3 104 39 112
3 83 18 92
3 65 2 108
3 68 46 110
3 21 86 124
3 66 1 75
3 54 88 87
3 127 4 113
3 121 59 104
3 79 15 80
3 78 13 83
3 15 79 88
3 89 25 120
3 110 62 105
3 109 44 66
3 29 93 103
3 34 98 120
3 80 17 70
3 117 30 121
3 99 35 100
3 105 41 106
3 81 16 89
3 122 45 109
3 84 20 85
3 119 47 69
3 70 6 71
3 95 31 117
3 100 37 90
3 106 60 96
3 114 52 81
3 101 36 122
3 85 22 73
3 123 42 119
3 71 8 111
3 86 21 95
3 90 26 91
3 96 32 97
3 125 7 114
3 116 58 101
3 36 58 37
3 58 116 126
3 107 43 123
3 111 63 102
3 91 28 82
3 97 57 87
3 72 48 125
3 102 104 112
3 74 50 64
3 77 14 67
3 118 33 107
3 115 10 124
3 14 77 76
3 82 19 76
3 50 74 73
3 112 49 72
3 92 55 126
3 20 84 94
3 67 3 68
3 98 34 118
3 2 65 64
