ply
format ascii 1.0
comment Created by Blender 2.69 (sub 0) - www.blender.org, source file: 'Helicopter.blend'
element vertex 424
property float x
property float y
property float z
property float nx
property float ny
property float nz
property float s
property float t
element face 376
property list uchar uint vertex_indices
end_header
-1.445766 -0.969052 -0.327912 -0.006928 -0.710196 0.703940 0.336044 0.820645
-1.445773 -0.975819 -0.344250 0.000305 -0.999969 0.000000 0.327875 0.820642
-1.223908 -0.968067 -0.325569 0.097568 -0.721610 0.685354 0.337215 0.904171
-1.445749 -0.952714 -0.321145 -0.014130 -0.000031 0.999878 0.023643 0.820651
-1.445766 -0.969052 -0.327912 -0.006928 -0.710196 0.703940 0.015474 0.820645
-1.239174 -0.951888 -0.317831 -0.020539 -0.052217 0.998413 0.024056 0.898424
-1.445731 -0.936375 -0.327912 -0.008606 0.709098 0.705008 0.031812 0.820658
-1.254439 -0.935710 -0.325569 -0.098270 0.691794 0.715354 0.032145 0.892677
-1.445724 -0.929608 -0.344250 -0.003235 0.999969 0.000000 0.327875 0.820661
-1.445731 -0.936375 -0.327912 -0.008606 0.709098 0.705008 0.336044 0.820658
-1.260763 -0.929009 -0.344250 -0.113926 0.993469 0.000000 0.327875 0.890296
-1.445731 -0.936375 -0.360588 -0.008606 0.709098 -0.705008 0.319706 0.820658
-1.445749 -0.952714 -0.367356 -0.014130 -0.000031 -0.999878 0.023643 0.820651
-1.445731 -0.936375 -0.360588 -0.008606 0.709098 -0.705008 0.031812 0.820658
-1.254439 -0.935710 -0.362931 -0.098270 0.691794 -0.715354 0.032145 0.892677
-1.445766 -0.969052 -0.360588 -0.006928 -0.710196 -0.703940 0.015474 0.820645
-1.239174 -0.951888 -0.370669 -0.020539 -0.052217 -0.998413 0.024056 0.898424
-1.445766 -0.969052 -0.360588 -0.006928 -0.710196 -0.703940 0.319706 0.820645
-1.223908 -0.968067 -0.362931 0.097568 -0.721610 -0.685385 0.318534 0.904171
-1.217585 -0.974768 -0.344250 0.163305 -0.986572 0.000000 0.327875 0.906552
-1.038737 -0.914762 -0.325569 0.310495 -0.619983 0.720542 0.337215 0.973886
-1.223908 -0.968067 -0.325569 0.097568 -0.721610 0.685354 0.015967 0.904171
-1.060326 -0.901552 -0.317831 0.003754 -0.060305 0.998169 0.049224 0.965758
-1.081914 -0.888343 -0.325569 -0.290567 0.576281 0.763817 0.055829 0.957630
-1.254439 -0.935710 -0.325569 -0.098270 0.691794 0.715354 0.337215 0.892677
-1.090857 -0.882871 -0.344250 -0.420820 0.907132 0.000000 0.327875 0.954264
-1.254439 -0.935710 -0.362931 -0.098270 0.691794 -0.715354 0.318534 0.892677
-1.081914 -0.888343 -0.362931 -0.290567 0.576250 -0.763848 0.055829 0.957630
-1.223908 -0.968067 -0.362931 0.097568 -0.721610 -0.685385 0.015967 0.904171
-1.060326 -0.901552 -0.370669 0.003754 -0.060305 -0.998169 0.049224 0.965758
-1.038737 -0.914762 -0.362931 0.310495 -0.619983 -0.720542 0.318534 0.973886
-1.038737 -0.914762 -0.325569 0.310495 -0.619983 0.720542 0.042619 0.337215
-1.029794 -0.920233 -0.344250 0.485733 -0.874081 0.000000 0.039883 0.327875
-0.896649 -0.801462 -0.325569 0.468337 -0.441511 0.765282 0.099269 0.337215
-1.038737 -0.914762 -0.325569 0.310495 -0.619983 0.720542 0.042619 0.973886
-0.923090 -0.792121 -0.317831 0.015748 -0.030488 0.999390 0.103939 1.017426
-0.949531 -0.782781 -0.325569 -0.441511 0.407178 0.799524 0.108610 1.007471
-1.090857 -0.882871 -0.344250 -0.420820 0.907132 0.000000 0.058564 0.327875
-1.081914 -0.888343 -0.325569 -0.290567 0.576281 0.763817 0.055829 0.337215
-0.960483 -0.778912 -0.344250 -0.719230 0.694723 0.000000 0.110544 0.327875
-1.081914 -0.888343 -0.362931 -0.290567 0.576250 -0.763848 0.055829 0.318534
-0.949531 -0.782781 -0.362931 -0.441511 0.407178 -0.799524 0.108610 1.007471
-1.038737 -0.914762 -0.362931 0.310495 -0.619983 -0.720542 0.042619 0.973886
-0.923090 -0.792121 -0.370669 0.015748 -0.030488 -0.999390 0.103939 1.017426
-1.038737 -0.914762 -0.362931 0.310495 -0.619983 -0.720542 0.042619 0.318534
-0.896649 -0.801462 -0.362931 0.468337 -0.441511 -0.765282 0.099269 0.318534
-0.885697 -0.805331 -0.344250 0.746818 -0.664998 0.000000 0.097335 0.327875
-0.807330 -0.669521 -0.325569 0.589038 -0.202124 0.782403 0.165239 0.337215
-0.923090 -0.792121 -0.317831 0.015748 -0.030488 0.999390 0.103939 0.017425
-0.896649 -0.801462 -0.325569 0.468337 -0.441511 0.765282 0.099269 0.027380
-0.836821 -0.664686 -0.317831 0.040712 -0.021668 0.998932 0.167657 0.049905
-0.949531 -0.782781 -0.325569 -0.441511 0.407178 0.799524 0.108610 0.007471
-0.866312 -0.659851 -0.325569 -0.512467 0.169774 0.841731 0.170074 0.038802
-0.949531 -0.782781 -0.325569 -0.441511 0.407178 0.799524 0.108610 0.337215
-0.878527 -0.657849 -0.344250 -0.943937 0.330088 0.000000 0.171076 0.327875
-0.949531 -0.782781 -0.362931 -0.441511 0.407178 -0.799524 0.108610 0.318534
-0.923090 -0.792121 -0.370669 0.015748 -0.030488 -0.999390 0.103939 0.017425
-0.949531 -0.782781 -0.362931 -0.441511 0.407178 -0.799524 0.108610 0.007471
-0.866312 -0.659851 -0.362931 -0.512467 0.169774 -0.841731 0.170074 0.038802
-0.896649 -0.801462 -0.362931 0.468337 -0.441511 -0.765282 0.099269 0.027380
-0.836821 -0.664686 -0.370669 0.040712 -0.021668 -0.998932 0.167657 0.049905
-0.807330 -0.669521 -0.362931 0.589038 -0.202124 -0.782403 0.165239 0.318534
-0.795114 -0.671524 -0.344250 0.953124 -0.302499 0.000000 0.164238 0.327875
-0.764218 0.000447 -0.344250 0.999969 0.000000 0.000000 0.500224 0.327875
-0.807330 -0.669521 -0.325569 0.589038 -0.202124 0.782403 0.165239 0.061008
-0.776865 0.000447 -0.325569 0.581347 0.000000 0.813623 0.500224 0.072478
-0.807396 0.000447 -0.317831 0.006806 0.000000 0.999969 0.500224 0.060983
-0.866312 -0.659851 -0.325569 -0.512467 0.169774 0.841731 0.170074 0.337215
-0.837927 0.000447 -0.325569 -0.567980 0.000000 0.823023 0.500224 0.337215
-0.866312 -0.659851 -0.362931 -0.512467 0.169774 -0.841731 0.170074 0.318534
-0.837927 0.000447 -0.362931 -0.567980 0.000000 -0.823023 0.500224 0.318534
-0.807396 0.000447 -0.370669 0.006806 0.000000 -0.999969 0.500224 0.060983
-0.807330 -0.669521 -0.362931 0.589038 -0.202124 -0.782403 0.165239 0.061008
-0.776865 0.000447 -0.362931 0.581347 0.000000 -0.813623 0.500224 0.072478
-0.776865 0.000447 -0.325569 0.581347 0.000000 0.813623 0.500224 0.337215
-0.807330 0.670416 -0.325569 0.589038 0.202124 0.782403 0.835208 0.337215
-0.836821 0.665581 -0.317831 0.040712 0.021668 0.998932 0.832790 0.049905
-0.837927 0.000447 -0.325569 -0.567980 0.000000 0.823023 0.500224 0.049488
-0.866312 0.660746 -0.325569 -0.512467 -0.169774 0.841731 0.830373 0.038802
-0.850574 0.000447 -0.344250 -1.000000 0.000000 0.000000 0.500224 0.327875
-0.878527 0.658743 -0.344250 -0.943937 -0.330088 0.000000 0.829372 0.327875
-0.837927 0.000447 -0.362931 -0.567980 0.000000 -0.823023 0.500224 0.049488
-0.866312 0.660746 -0.362931 -0.512467 -0.169774 -0.841731 0.830373 0.038802
-0.836821 0.665581 -0.370669 0.040712 0.021668 -0.998932 0.832790 0.049905
-0.776865 0.000447 -0.362931 0.581347 0.000000 -0.813623 0.500224 0.318534
-0.807330 0.670416 -0.362931 0.589038 0.202124 -0.782403 0.835208 0.318534
-0.795114 0.672419 -0.344250 0.953124 0.302499 0.000000 0.836209 0.327875
-0.885697 0.806225 -0.344250 0.746818 0.664998 0.000000 0.903113 0.327875
-0.807330 0.670416 -0.325569 0.589038 0.202124 0.782403 0.835208 0.061008
-0.896649 0.802356 -0.325569 0.468337 0.441511 0.765282 0.901178 0.027380
-0.923090 0.793016 -0.317831 0.015748 0.030488 0.999390 0.896508 0.017426
-0.866312 0.660746 -0.325569 -0.512467 -0.169774 0.841731 0.830373 0.337215
-0.949531 0.783675 -0.325569 -0.441511 -0.407178 0.799524 0.891838 0.337215
-0.866312 0.660746 -0.362931 -0.512467 -0.169774 -0.841731 0.830373 0.318534
-0.949531 0.783675 -0.362931 -0.441511 -0.407178 -0.799524 0.891838 0.318534
-0.923090 0.793016 -0.370669 0.015748 0.030488 -0.999390 0.896508 0.017426
-0.807330 0.670416 -0.362931 0.589038 0.202124 -0.782403 0.835208 0.061008
-0.896649 0.802356 -0.362931 0.468337 0.441511 -0.765282 0.901178 0.027380
-0.896649 0.802356 -0.325569 0.468337 0.441511 0.765282 0.901178 0.337215
-1.029794 0.921128 -0.344250 0.496078 0.868252 0.000000 0.960564 0.327875
-1.038737 0.915656 -0.325569 0.318735 0.611377 0.724265 0.957828 -0.026114
-0.949531 0.783675 -0.325569 -0.441511 -0.407178 0.799524 0.891838 0.007471
-1.060326 0.902447 -0.317831 0.004578 0.054170 0.998505 0.951223 -0.034242
-0.960483 0.779806 -0.344250 -0.719230 -0.694723 0.000000 0.889903 0.327875
-1.081914 0.889237 -0.325569 -0.299997 -0.570299 0.764672 0.944619 0.337215
-1.081914 0.889237 -0.362931 -0.299997 -0.570299 -0.764672 0.944619 0.318534
-0.949531 0.783675 -0.362931 -0.441511 -0.407178 -0.799524 0.891838 0.007471
-1.060326 0.902447 -0.370669 0.004578 0.054170 -0.998505 0.951223 -0.034242
-1.038737 0.915656 -0.362931 0.318735 0.611377 -0.724265 0.957828 -0.026114
-0.896649 0.802356 -0.362931 0.468337 0.441511 -0.765282 0.901178 0.318534
-1.038737 0.915656 -0.325569 0.318735 0.611377 0.724265 0.337215 0.973886
-1.029794 0.921128 -0.344250 0.496078 0.868252 0.000000 0.327875 0.977253
-1.217585 0.981653 -0.344250 0.187567 0.982238 0.000000 0.327875 0.906552
-1.060326 0.902447 -0.317831 0.004578 0.054170 0.998505 0.951223 0.965758
-1.038737 0.915656 -0.325569 0.318735 0.611377 0.724265 0.957828 0.973886
-1.223908 0.974951 -0.325569 0.115665 0.715659 0.688772 0.987476 0.904171
-1.081914 0.889237 -0.325569 -0.299997 -0.570299 0.764672 0.944619 0.957630
-1.239174 0.958773 -0.317831 -0.014374 0.050508 0.998596 0.979387 0.898424
-1.090857 0.883766 -0.344250 -0.438795 -0.898556 0.000000 0.327875 0.954264
-1.081914 0.889237 -0.325569 -0.299997 -0.570299 0.764672 0.337215 0.957630
-1.254440 0.942595 -0.325569 -0.105258 -0.687887 0.718131 0.337215 0.892677
-1.081914 0.889237 -0.362931 -0.299997 -0.570299 -0.764672 0.318534 0.957630
-1.254440 0.942595 -0.362931 -0.105258 -0.687887 -0.718131 0.318534 0.892677
-1.060326 0.902447 -0.370669 0.004578 0.054170 -0.998505 0.951223 0.965758
-1.081914 0.889237 -0.362931 -0.299997 -0.570299 -0.764672 0.944619 0.957630
-1.239174 0.958773 -0.370669 -0.014374 0.050508 -0.998596 0.979387 0.898424
-1.038737 0.915656 -0.362931 0.318735 0.611377 -0.724265 0.957828 0.973886
-1.223908 0.974951 -0.362931 0.115665 0.715659 -0.688772 0.987476 0.904171
-1.038737 0.915656 -0.362931 0.318735 0.611377 -0.724265 0.318534 0.973886
-1.445749 0.987255 -0.344250 0.020783 0.999756 0.000000 0.327875 0.820651
-1.445749 0.979763 -0.326161 0.011414 0.710959 0.703116 0.336919 0.820651
-1.223908 0.974951 -0.325569 0.115665 0.715659 0.688772 0.337215 0.904171
-1.445749 0.979763 -0.326161 0.011414 0.710959 0.703116 0.989882 0.820651
-1.254440 0.942595 -0.325569 -0.105258 -0.687887 0.718131 0.971297 0.892677
-1.445749 0.961677 -0.318668 -0.001862 0.002045 0.999969 0.980838 0.820651
-1.260763 0.935894 -0.344250 -0.126743 -0.991913 0.000000 0.327875 0.890296
-1.445749 0.943590 -0.326161 -0.003357 -0.707968 0.706198 0.336919 0.820651
-1.445749 0.943590 -0.362340 -0.003357 -0.707968 -0.706198 0.318830 0.820651
-1.254440 0.942595 -0.362931 -0.105258 -0.687887 -0.718131 0.971297 0.892677
-1.445749 0.961677 -0.369832 -0.001862 0.002045 -0.999969 0.980838 0.820651
-1.445749 0.979763 -0.362340 0.011414 0.710959 -0.703116 0.989882 0.820651
-1.445749 0.979763 -0.362340 0.011414 0.710959 -0.703116 0.318830 0.820651
-1.223908 0.974951 -0.362931 0.115665 0.715659 -0.688772 0.318534 0.904171
-1.445749 0.979763 1.305912 0.011414 0.710959 -0.703116 0.152956 0.820651
-1.445749 0.987255 1.324001 0.020783 0.999756 0.000000 0.162001 0.820651
-1.223908 0.974951 1.305320 0.115665 0.715659 -0.688772 0.152660 0.904171
-1.223908 0.974951 1.305320 0.115665 0.715659 -0.688772 0.987476 0.904171
-1.239174 0.958773 1.297583 -0.014374 0.050508 -0.998596 0.979387 0.898424
-1.445749 0.979763 1.305912 0.011414 0.710959 -0.703116 0.989882 0.820651
-1.254440 0.942595 1.305320 -0.105258 -0.687887 -0.718131 0.971297 0.892677
-1.445749 0.961677 1.298420 -0.001862 0.002045 -0.999969 0.980838 0.820651
-1.254440 0.942595 1.305320 -0.105258 -0.687887 -0.718131 0.152660 0.892677
-1.260763 0.935894 1.324001 -0.126743 -0.991913 0.000000 0.162001 0.890296
-1.445749 0.943590 1.305912 -0.003357 -0.707968 -0.706198 0.152956 0.820651
-1.254440 0.942595 1.342682 -0.105258 -0.687887 0.718131 0.171341 0.892677
-1.445749 0.943590 1.342091 -0.003357 -0.707968 0.706198 0.171045 0.820651
-1.254440 0.942595 1.342682 -0.105258 -0.687887 0.718131 0.971297 0.892677
-1.239174 0.958773 1.350421 -0.014374 0.050508 0.998596 0.979387 0.898424
-1.445749 0.961677 1.349584 -0.001862 0.002045 0.999969 0.980838 0.820651
-1.223908 0.974951 1.342682 0.115665 0.715659 0.688772 0.987476 0.904171
-1.445749 0.979763 1.342091 0.011414 0.710959 0.703116 0.989882 0.820651
-1.445749 0.979763 1.342091 0.011414 0.710959 0.703116 0.171045 0.820651
-1.223908 0.974951 1.342682 0.115665 0.715659 0.688772 0.171341 0.904171
-1.029794 0.921128 1.324001 0.496078 0.868252 0.000000 0.162001 0.977253
-1.038737 0.915656 1.305320 0.318735 0.611377 -0.724265 0.152660 0.973886
-1.217585 0.981653 1.324001 0.187567 0.982238 0.000000 0.162001 0.906552
-1.038737 0.915656 1.305320 0.318735 0.611377 -0.724265 0.957828 0.973886
-1.060326 0.902447 1.297583 0.004578 0.054170 -0.998505 0.951223 0.965758
-1.081914 0.889237 1.305320 -0.299997 -0.570299 -0.764672 0.944619 0.957630
-1.081914 0.889237 1.305320 -0.299997 -0.570299 -0.764672 0.152660 0.957630
-1.090857 0.883766 1.324001 -0.438795 -0.898556 0.000000 0.162001 0.954264
-1.081914 0.889237 1.342682 -0.299997 -0.570299 0.764672 0.171341 0.957630
-1.081914 0.889237 1.342682 -0.299997 -0.570299 0.764672 0.944619 0.957630
-1.060326 0.902447 1.350421 0.004578 0.054170 0.998505 0.951223 0.965758
-1.038737 0.915656 1.342682 0.318735 0.611377 0.724265 0.957828 0.973886
-1.038737 0.915656 1.342682 0.318735 0.611377 0.724265 0.171341 0.973886
-0.885697 0.806225 1.324001 0.746818 0.664998 0.000000 0.903113 0.162001
-0.896649 0.802356 1.305320 0.468337 0.441511 -0.765282 0.901178 0.152660
-1.029794 0.921128 1.324001 0.496078 0.868252 0.000000 0.960564 0.162001
-0.896649 0.802356 1.305320 0.468337 0.441511 -0.765282 0.901178 0.027380
-0.923090 0.793016 1.297583 0.015748 0.030488 -0.999390 0.896508 0.017426
-1.038737 0.915656 1.305320 0.318735 0.611377 -0.724265 0.957828 -0.026114
-0.949531 0.783675 1.305320 -0.441511 -0.407178 -0.799524 0.891838 0.007471
-1.060326 0.902447 1.297583 0.004578 0.054170 -0.998505 0.951223 -0.034242
-0.949531 0.783675 1.305320 -0.441511 -0.407178 -0.799524 0.891838 0.152660
-0.960483 0.779806 1.324001 -0.719230 -0.694723 0.000000 0.889903 0.162001
-1.081914 0.889237 1.305320 -0.299997 -0.570299 -0.764672 0.944619 0.152660
-0.949531 0.783675 1.342682 -0.441511 -0.407178 0.799524 0.891838 0.171341
-1.081914 0.889237 1.342682 -0.299997 -0.570299 0.764672 0.944619 0.171341
-0.949531 0.783675 1.342682 -0.441511 -0.407178 0.799524 0.891838 0.007471
-0.923090 0.793016 1.350421 0.015748 0.030488 0.999390 0.896508 0.017426
-1.060326 0.902447 1.350421 0.004578 0.054170 0.998505 0.951223 -0.034242
-0.896649 0.802356 1.342682 0.468337 0.441511 0.765282 0.901178 0.027380
-1.038737 0.915656 1.342682 0.318735 0.611377 0.724265 0.957828 -0.026114
-0.896649 0.802356 1.342682 0.468337 0.441511 0.765282 0.901178 0.171341
-0.795114 0.672419 1.324001 0.953124 0.302499 0.000000 0.836209 0.162001
-0.807330 0.670416 1.305320 0.589038 0.202124 -0.782403 0.835208 0.152660
-0.807330 0.670416 1.305320 0.589038 0.202124 -0.782403 0.835208 0.061008
-0.836821 0.665581 1.297583 0.040712 0.021668 -0.998932 0.832790 0.049905
-0.866312 0.660746 1.305320 -0.512467 -0.169774 -0.841731 0.830373 0.038802
-0.866312 0.660746 1.305320 -0.512467 -0.169774 -0.841731 0.830373 0.152660
-0.878527 0.658743 1.324001 -0.943937 -0.330088 0.000000 0.829372 0.162001
-0.866312 0.660746 1.342682 -0.512467 -0.169774 0.841731 0.830373 0.171341
-0.866312 0.660746 1.342682 -0.512467 -0.169774 0.841731 0.830373 0.038802
-0.836821 0.665581 1.350421 0.040712 0.021668 0.998932 0.832790 0.049905
-0.807330 0.670416 1.342682 0.589038 0.202124 0.782403 0.835208 0.061008
-0.807330 0.670416 1.342682 0.589038 0.202124 0.782403 0.835208 0.171341
-0.764218 0.000447 1.324001 0.999969 0.000000 0.000000 0.500224 0.162001
-0.776865 0.000447 1.305320 0.581347 0.000000 -0.813623 0.500224 0.152660
-0.776865 0.000447 1.305320 0.581347 0.000000 -0.813623 0.500224 0.072478
-0.807396 0.000447 1.297583 0.006806 0.000000 -0.999969 0.500224 0.060983
-0.837927 0.000447 1.305320 -0.567980 0.000000 -0.823023 0.500224 0.049488
-0.837927 0.000447 1.305320 -0.567980 0.000000 -0.823023 0.500224 0.152660
-0.850574 0.000447 1.324001 -0.999969 0.000000 0.000000 0.500224 0.162001
-0.837927 0.000447 1.342682 -0.567980 0.000000 0.823023 0.500224 0.171341
-0.837927 0.000447 1.342682 -0.567980 0.000000 0.823023 0.500224 0.049488
-0.807396 0.000447 1.350421 0.006806 0.000000 0.999969 0.500224 0.060983
-0.776865 0.000447 1.342682 0.581347 0.000000 0.813623 0.500224 0.072478
-0.776865 0.000447 1.342682 0.581347 0.000000 0.813623 0.500224 0.171341
-0.795114 -0.671524 1.324001 0.953124 -0.302499 0.000000 0.164238 0.162001
-0.807330 -0.669521 1.305320 0.589038 -0.202124 -0.782403 0.165239 0.152660
-0.807330 -0.669521 1.305320 0.589038 -0.202124 -0.782403 0.165239 0.061008
-0.836821 -0.664686 1.297583 0.040712 -0.021668 -0.998932 0.167657 0.049905
-0.866312 -0.659851 1.305320 -0.512467 0.169774 -0.841731 0.170074 0.038802
-0.866312 -0.659851 1.305320 -0.512467 0.169774 -0.841731 0.170074 0.152660
-0.878527 -0.657849 1.324001 -0.943937 0.330088 0.000000 0.171076 0.162001
-0.866312 -0.659851 1.342682 -0.512467 0.169774 0.841731 0.170074 0.171341
-0.866312 -0.659851 1.342682 -0.512467 0.169774 0.841731 0.170074 0.038802
-0.836821 -0.664686 1.350421 0.040712 -0.021668 0.998932 0.167657 0.049905
-0.807330 -0.669521 1.342682 0.589038 -0.202124 0.782373 0.165239 0.061008
-0.807330 -0.669521 1.342682 0.589038 -0.202124 0.782373 0.165239 0.171341
-0.885697 -0.805331 1.324001 0.746818 -0.664968 0.000000 0.097335 0.162001
-0.896649 -0.801462 1.305320 0.468337 -0.441511 -0.765282 0.099269 0.152660
-0.896649 -0.801462 1.305320 0.468337 -0.441511 -0.765282 0.099269 0.027380
-0.923090 -0.792121 1.297583 0.015748 -0.030488 -0.999390 0.103939 0.017425
-0.949531 -0.782781 1.305320 -0.441511 0.407178 -0.799524 0.108610 0.007471
-0.949531 -0.782781 1.305320 -0.441511 0.407178 -0.799524 0.108610 0.152660
-0.960483 -0.778912 1.324001 -0.719230 0.694723 0.000000 0.110544 0.162001
-0.949531 -0.782781 1.342682 -0.441511 0.407178 0.799524 0.108610 0.171341
-0.949531 -0.782781 1.342682 -0.441511 0.407178 0.799524 0.108610 0.007471
-0.923090 -0.792121 1.350421 0.015748 -0.030488 0.999390 0.103939 0.017425
-0.896649 -0.801462 1.342682 0.468337 -0.441511 0.765282 0.099269 0.027380
-0.896649 -0.801462 1.342682 0.468337 -0.441511 0.765282 0.099269 0.171341
-1.029794 -0.920233 1.324001 0.485733 -0.874081 0.000000 0.039883 0.162001
-1.038737 -0.914762 1.305320 0.310495 -0.619983 -0.720542 0.042619 0.152660
-1.038737 -0.914762 1.305320 0.310495 -0.619983 -0.720542 0.042619 0.973886
-1.060326 -0.901552 1.297583 0.003754 -0.060305 -0.998169 0.049224 0.965758
-0.923090 -0.792121 1.297583 0.015748 -0.030488 -0.999390 0.103939 1.017426
-1.081914 -0.888343 1.305320 -0.290567 0.576250 -0.763848 0.055829 0.957630
-0.949531 -0.782781 1.305320 -0.441511 0.407178 -0.799524 0.108610 1.007471
-1.081914 -0.888343 1.305320 -0.290567 0.576250 -0.763848 0.055829 0.152660
-1.090857 -0.882871 1.324001 -0.420820 0.907132 0.000000 0.058564 0.162001
-1.081914 -0.888343 1.342682 -0.290567 0.576281 0.763817 0.055829 0.171341
-1.081914 -0.888343 1.342682 -0.290567 0.576281 0.763817 0.055829 0.957630
-1.060326 -0.901552 1.350421 0.003754 -0.060305 0.998169 0.049224 0.965758
-0.949531 -0.782781 1.342682 -0.441511 0.407178 0.799524 0.108610 1.007471
-1.038737 -0.914762 1.342682 0.310495 -0.619983 0.720542 0.042619 0.973886
-0.923090 -0.792121 1.350421 0.015748 -0.030488 0.999390 0.103939 1.017426
-1.038737 -0.914762 1.342682 0.310495 -0.619983 0.720542 0.042619 0.171341
-1.217585 -0.974768 1.324001 0.163305 -0.986572 0.000000 0.162001 0.906552
-1.223908 -0.968067 1.305320 0.097568 -0.721610 -0.685385 0.152660 0.904171
-1.038737 -0.914762 1.305320 0.310495 -0.619983 -0.720542 0.152660 0.973886
-1.223908 -0.968067 1.305320 0.097568 -0.721610 -0.685385 0.015967 0.904171
-1.239174 -0.951888 1.297583 -0.020539 -0.052217 -0.998413 0.024056 0.898424
-1.254439 -0.935710 1.305320 -0.098270 0.691794 -0.715354 0.032145 0.892677
-1.254439 -0.935710 1.305320 -0.098270 0.691794 -0.715354 0.152660 0.892677
-1.260763 -0.929009 1.324001 -0.113926 0.993469 0.000000 0.162001 0.890296
-1.090857 -0.882871 1.324001 -0.420820 0.907132 0.000000 0.162001 0.954264
-1.254439 -0.935710 1.342682 -0.098270 0.691794 0.715354 0.171341 0.892677
-1.254439 -0.935710 1.342682 -0.098270 0.691794 0.715354 0.032145 0.892677
-1.239174 -0.951888 1.350421 -0.020539 -0.052217 0.998413 0.024056 0.898424
-1.223908 -0.968067 1.342682 0.097568 -0.721610 0.685354 0.015967 0.904171
-1.223908 -0.968067 1.342682 0.097568 -0.721610 0.685354 0.171341 0.904171
-1.038737 -0.914762 1.342682 0.310495 -0.619983 0.720542 0.171341 0.973886
-1.445773 -0.975819 1.324001 0.000305 -0.999969 0.000000 0.162001 0.820642
-1.445766 -0.969052 1.307663 -0.006928 -0.710196 -0.703940 0.153832 0.820645
-1.445766 -0.969052 1.307663 -0.006928 -0.710196 -0.703940 0.015474 0.820645
-1.445749 -0.952714 1.300896 -0.014130 -0.000031 -0.999878 0.023643 0.820651
-1.445731 -0.936375 1.307663 -0.008606 0.709098 -0.705008 0.031812 0.820658
-1.445731 -0.936375 1.307663 -0.008606 0.709098 -0.705008 0.153832 0.820658
-1.445724 -0.929608 1.324001 -0.003235 0.999969 0.000000 0.162001 0.820661
-1.445731 -0.936375 1.340340 -0.008606 0.709098 0.705008 0.170170 0.820658
-1.445731 -0.936375 1.340340 -0.008606 0.709098 0.705008 0.031812 0.820658
-1.445749 -0.952714 1.347107 -0.014130 -0.000031 0.999878 0.023643 0.820651
-1.445766 -0.969052 1.340340 -0.006928 -0.710196 0.703940 0.015474 0.820645
-1.445766 -0.969052 1.340340 -0.006928 -0.710196 0.703940 0.170170 0.820645
-1.464754 1.045876 1.463741 -1.000000 0.000000 0.000000 0.022938 0.231870
-1.464754 1.045876 -0.413817 -1.000000 0.000000 0.000000 0.022938 -0.706909
-1.464754 0.888046 -0.413817 -1.000000 0.000000 0.000000 -0.055977 -0.706909
-1.426743 1.045876 1.463741 1.000000 0.000000 -0.000000 0.022938 0.231870
-1.426743 0.888046 1.463741 1.000000 0.000000 -0.000000 -0.055977 0.231870
-1.426743 1.045876 -0.413817 1.000000 0.000000 -0.000000 0.022938 -0.706909
-1.464754 1.045876 1.463741 0.000000 1.000000 -0.000000 0.231870 0.813496
-1.426743 1.045876 1.463741 0.000000 1.000000 -0.000000 0.231870 0.827807
-1.426743 1.045876 -0.413817 0.000000 1.000000 -0.000000 -0.706909 0.827807
-1.464754 0.888046 -0.413817 -0.000002 -1.000000 0.000000 0.293091 0.813496
-1.426743 0.888046 -0.413817 -0.000002 -1.000000 0.000000 0.293091 0.827807
-1.426743 0.888046 1.463741 -0.000002 -1.000000 0.000000 1.231870 0.827807
-1.464754 0.888046 1.463741 -0.000000 -1.000000 0.000000 0.231870 0.813496
-1.426743 0.888046 1.463741 -0.000000 -1.000000 0.000000 0.231870 0.827807
-1.386372 0.888046 1.636261 -0.000000 -1.000000 0.000000 0.318130 0.843006
-1.386372 1.045876 1.636261 -0.000000 1.000000 0.000000 0.318130 0.843006
-1.426743 0.888046 1.463741 0.910438 0.000000 -0.413646 0.944023 0.231870
-1.426743 1.045876 1.463741 0.910438 0.000000 -0.413646 1.022938 0.231870
-1.348360 1.045876 1.636261 0.910438 0.000000 -0.413646 1.022938 0.318130
-1.464754 1.045876 1.463741 -0.910438 0.000000 0.413646 0.022938 0.231870
-1.464754 0.888046 1.463741 -0.910438 0.000000 0.413646 -0.055977 0.231870
-1.386372 0.888046 1.636261 -0.910438 0.000000 0.413646 -0.055977 0.318130
-1.386372 0.888046 1.636261 0.000000 0.000000 1.000000 0.944023 0.843006
-1.348360 0.888046 1.636261 0.000000 0.000000 1.000000 0.944023 0.857317
-1.348360 1.045876 1.636261 0.000000 0.000000 1.000000 1.022938 0.857317
-1.426743 0.888046 -0.413817 -0.000002 -1.000000 -0.000001 0.293091 0.827807
-1.464754 0.888046 -0.413817 -0.000002 -1.000000 -0.000001 0.293091 0.813496
-1.416519 0.888046 -0.559097 -0.000002 -1.000000 -0.000001 0.220451 0.831656
-1.464754 1.045876 -0.413817 0.000003 1.000000 0.000001 0.293091 0.813496
-1.426743 1.045876 -0.413817 0.000003 1.000000 0.000001 0.293091 0.827807
-1.416519 1.045876 -0.559097 0.000003 1.000000 0.000001 0.220451 0.831656
-1.426743 1.045876 -0.413817 0.949058 -0.000000 0.315102 0.022938 0.293091
-1.426743 0.888046 -0.413817 0.949058 -0.000000 0.315102 -0.055977 0.293091
-1.378508 1.045876 -0.559097 0.949058 -0.000000 0.315102 0.022938 0.220451
-1.464754 0.888046 -0.413817 -0.949058 -0.000000 -0.315102 0.944023 0.293091
-1.464754 1.045876 -0.413817 -0.949058 -0.000000 -0.315102 1.022938 0.293091
-1.416519 1.045876 -0.559097 -0.949058 -0.000000 -0.315102 1.022938 0.220451
-1.416519 1.045876 -0.559097 0.000000 0.000000 -1.000000 0.022938 0.831656
-1.378508 1.045876 -0.559097 0.000000 0.000000 -1.000000 0.022938 0.845967
-1.416519 0.888046 -0.559097 0.000000 0.000000 -1.000000 -0.055977 0.831656
-1.416519 -0.860923 -0.559097 0.000000 0.000000 -1.000000 0.069538 0.831656
-1.378508 -0.860923 -0.559097 0.000000 0.000000 -1.000000 0.069538 0.845967
-1.416519 -1.018753 -0.559097 0.000000 0.000000 -1.000000 -0.009376 0.831656
-1.464754 -1.018753 -0.413817 -0.949058 -0.000000 -0.315102 0.990624 0.293091
-1.464754 -0.860923 -0.413817 -0.949058 -0.000000 -0.315102 1.069538 0.293091
-1.416519 -1.018753 -0.559097 -0.949058 -0.000000 -0.315102 0.990624 0.220451
-1.426743 -0.860923 -0.413817 0.949058 -0.000000 0.315102 0.069538 0.293091
-1.426743 -1.018753 -0.413817 0.949058 -0.000000 0.315102 -0.009376 0.293091
-1.378508 -0.860923 -0.559097 0.949058 -0.000000 0.315102 0.069538 0.220451
-1.464754 -0.860923 -0.413817 0.000003 1.000000 0.000001 0.293091 0.813496
-1.426743 -0.860923 -0.413817 0.000003 1.000000 0.000001 0.293091 0.827807
-1.416519 -0.860923 -0.559097 0.000003 1.000000 0.000001 0.220451 0.831656
-1.426743 -1.018753 -0.413817 0.000000 -1.000000 0.000000 0.293091 0.827807
-1.464754 -1.018753 -0.413817 0.000000 -1.000000 0.000000 0.293091 0.813496
-1.416519 -1.018753 -0.559097 0.000000 -1.000000 0.000000 0.220451 0.831656
-1.386372 -1.018753 1.636261 0.000000 0.000000 1.000000 0.990624 0.843006
-1.348360 -1.018753 1.636261 0.000000 0.000000 1.000000 0.990624 0.857317
-1.348360 -0.860923 1.636261 0.000000 0.000000 1.000000 1.069538 0.857317
-1.464754 -0.860923 1.463741 -0.910438 0.000000 0.413646 0.069538 0.231870
-1.464754 -1.018753 1.463741 -0.910438 0.000000 0.413646 -0.009376 0.231870
-1.386372 -1.018753 1.636261 -0.910438 0.000000 0.413646 -0.009376 0.318130
-1.426743 -1.018753 1.463741 0.910438 0.000000 -0.413646 0.990624 0.231870
-1.426743 -0.860923 1.463741 0.910438 0.000000 -0.413646 1.069538 0.231870
-1.348360 -0.860923 1.636261 0.910438 0.000000 -0.413646 1.069538 0.318130
-1.426743 -0.860923 1.463741 -0.000000 1.000000 0.000000 0.231870 0.827807
-1.464754 -0.860923 1.463741 -0.000000 1.000000 0.000000 0.231870 0.813496
-1.386372 -0.860923 1.636261 -0.000000 1.000000 0.000000 0.318130 0.843006
-1.464754 -1.018753 1.463741 -0.000000 -1.000000 0.000000 0.231870 0.813496
-1.426743 -1.018753 1.463741 -0.000000 -1.000000 0.000000 0.231870 0.827807
-1.386372 -1.018753 1.636261 -0.000000 -1.000000 0.000000 0.318130 0.843006
-1.426743 -1.018753 1.463741 -0.000000 -1.000000 -0.000000 1.231870 0.827807
-1.426743 -0.860923 -0.413817 0.000000 1.000000 -0.000000 -0.706909 0.827807
-1.426743 -0.860923 1.463741 1.000000 0.000000 -0.000000 0.069538 0.231870
-1.426743 -1.018753 1.463741 1.000000 0.000000 -0.000000 -0.009376 0.231870
-1.426743 -0.860923 -0.413817 1.000000 0.000000 -0.000000 0.069538 -0.706909
-1.464754 -1.018753 -0.413817 -1.000000 -0.000000 -0.000000 0.990624 0.293091
-1.464754 -1.018753 1.463741 -1.000000 -0.000000 -0.000000 0.990624 1.231870
-1.464754 -0.860923 1.463741 -1.000000 -0.000000 -0.000000 1.069538 1.231870
-1.029794 -0.920233 -0.344250 0.485733 -0.874081 0.000000 0.327875 0.977253
-1.081914 -0.888343 -0.325569 -0.290567 0.576281 0.763817 0.337215 0.957630
-1.081914 -0.888343 -0.362931 -0.290567 0.576250 -0.763848 0.318534 0.957630
-0.896649 -0.801462 -0.325569 0.468337 -0.441511 0.765282 0.099269 1.027380
-0.896649 -0.801462 -0.362931 0.468337 -0.441511 -0.765282 0.099269 1.027380
-1.038737 0.915656 -0.325569 0.318735 0.611377 0.724265 0.957828 0.337215
-1.081914 0.889237 -0.325569 -0.299997 -0.570299 0.764672 0.944619 -0.042370
-1.090857 0.883766 -0.344250 -0.438795 -0.898556 0.000000 0.941883 0.327875
-1.081914 0.889237 -0.362931 -0.299997 -0.570299 -0.764672 0.944619 -0.042370
-1.038737 0.915656 -0.362931 0.318735 0.611377 -0.724265 0.957828 0.318534
-1.445749 0.943590 -0.326161 -0.003357 -0.707968 0.706198 0.971795 0.820651
-1.445749 0.936098 -0.344250 -0.001099 -0.999969 0.000000 0.327875 0.820651
-1.445749 0.943590 -0.362340 -0.003357 -0.707968 -0.706198 0.971795 0.820651
-1.445749 0.943590 1.305912 -0.003357 -0.707968 -0.706198 0.971795 0.820651
-1.445749 0.936098 1.324001 -0.001099 -0.999969 0.000000 0.162001 0.820651
-1.445749 0.943590 1.342091 -0.003357 -0.707968 0.706198 0.971795 0.820651
-1.038737 0.915656 1.305320 0.318735 0.611377 -0.724265 0.957828 0.152660
-1.081914 0.889237 1.305320 -0.299997 -0.570299 -0.764672 0.944619 -0.042370
-1.090857 0.883766 1.324001 -0.438795 -0.898556 0.000000 0.941883 0.162001
-1.081914 0.889237 1.342682 -0.299997 -0.570299 0.764672 0.944619 -0.042370
-1.038737 0.915656 1.342682 0.318735 0.611377 0.724265 0.957828 0.171341
-0.896649 -0.801462 1.305320 0.468337 -0.441511 -0.765282 0.099269 1.027380
-0.896649 -0.801462 1.342682 0.468337 -0.441511 0.765282 0.099269 1.027380
-1.029794 -0.920233 1.324001 0.485733 -0.874081 0.000000 0.162001 0.977253
-1.081914 -0.888343 1.305320 -0.290567 0.576250 -0.763848 0.152660 0.957630
-1.081914 -0.888343 1.342682 -0.290567 0.576281 0.763817 0.171341 0.957630
-1.464754 0.888046 1.463741 -1.000000 0.000000 0.000000 -0.055977 0.231870
-1.378508 0.888046 -0.559097 0.949058 0.000000 0.315102 -0.055977 0.220451
-1.464754 1.045876 -0.413817 0.000003 1.000000 0.000000 -0.706909 0.813496
-1.464754 1.045876 1.463741 0.000003 1.000000 0.000000 0.231870 0.813496
-1.426743 1.045876 -0.413817 0.000003 1.000000 0.000000 -0.706909 0.827807
-1.464754 0.888046 1.463741 -0.000000 -1.000000 0.000000 1.231870 0.813496
-1.464754 0.888046 -0.413817 -0.000000 -1.000000 0.000000 0.293091 0.813496
-1.426743 0.888046 1.463741 -0.000000 -1.000000 0.000000 1.231870 0.827807
-1.348360 0.888046 1.636261 0.000000 -1.000000 -0.000000 0.318130 0.857317
-1.348360 1.045876 1.636261 -0.000000 1.000000 0.000000 0.318130 0.857317
-1.348360 0.888046 1.636261 0.910438 0.000000 -0.413646 0.944023 0.318130
-1.386372 1.045876 1.636261 -0.910438 0.000000 0.413646 0.022938 0.318130
-1.386372 1.045876 1.636261 0.000000 -0.000000 1.000000 1.022938 0.843006
-1.378508 0.888046 -0.559097 -0.000002 -1.000000 -0.000001 0.220451 0.845967
-1.378508 1.045876 -0.559097 0.000003 1.000000 0.000001 0.220451 0.845967
-1.416519 -0.860923 -0.559097 -0.949058 0.000000 -0.315102 1.069538 0.220451
-1.416519 0.888046 -0.559097 -0.949058 0.000000 -0.315102 0.944023 0.220451
-1.378508 0.888046 -0.559097 0.000000 0.000000 -1.000000 -0.055977 0.845967
-1.378508 -1.018753 -0.559097 0.000000 0.000000 -1.000000 -0.009376 0.845967
-1.378508 -1.018753 -0.559097 0.949058 0.000000 0.315102 -0.009376 0.220451
-1.378508 -0.860923 -0.559097 0.000003 1.000000 0.000001 0.220451 0.845967
-1.378508 -1.018753 -0.559097 0.000000 -1.000000 0.000000 0.220451 0.845967
-1.386372 -0.860923 1.636261 0.000000 -0.000000 1.000000 1.069538 0.843006
-1.386372 -0.860923 1.636261 -0.910438 0.000000 0.413646 0.069538 0.318130
-1.348360 -1.018753 1.636261 0.910438 0.000000 -0.413646 0.990624 0.318130
-1.348360 -0.860923 1.636261 -0.000000 1.000000 0.000000 0.318130 0.857317
-1.348360 -1.018753 1.636261 0.000000 -1.000000 -0.000000 0.318130 0.857317
-1.464754 -1.018753 1.463741 -0.000000 -1.000000 0.000000 1.231870 0.813496
-1.464754 -0.860923 -0.413817 0.000003 1.000000 0.000000 -0.706909 0.813496
-1.464754 -0.860923 1.463741 0.000003 1.000000 0.000000 0.231870 0.813496
-1.426743 -0.860923 -0.413817 0.000003 1.000000 0.000000 -0.706909 0.827807
-1.426743 0.888046 -0.413817 1.000000 0.000000 -0.000000 -0.055977 -0.706909
-1.464754 -0.860923 -0.413817 -1.000000 0.000000 -0.000000 1.069538 0.293091
-1.426743 -1.018753 -0.413817 1.000000 0.000000 -0.000000 -0.009376 -0.706909
3 0 1 2
3 3 4 5
3 6 3 7
3 8 9 10
3 11 8 10
3 12 13 14
3 15 12 16
3 1 17 18
3 2 19 20
3 5 21 22
3 7 5 23
3 10 24 25
3 26 10 25
3 16 14 27
3 28 16 29
3 19 18 30
3 31 32 33
3 22 34 35
3 23 22 36
3 37 38 39
3 40 37 39
3 29 27 41
3 42 29 43
3 32 44 45
3 33 46 47
3 48 49 50
3 51 48 52
3 39 53 54
3 55 39 54
3 56 57 58
3 59 56 60
3 46 45 61
3 47 62 63
3 50 64 65
3 52 50 66
3 54 67 68
3 69 54 70
3 60 58 71
3 72 60 73
3 62 61 63
3 74 63 75
3 66 65 76
3 77 66 78
3 79 68 80
3 70 79 80
3 71 81 82
3 73 71 83
3 63 84 85
3 75 86 87
3 76 88 89
3 78 76 90
3 80 91 92
3 93 80 94
3 83 82 95
3 96 83 97
3 86 85 87
3 98 87 99
3 90 89 100
3 101 90 102
3 103 92 104
3 94 103 105
3 95 106 107
3 97 95 108
3 87 109 99
3 110 111 112
3 113 114 115
3 116 113 117
3 118 119 120
3 121 118 122
3 123 124 125
3 126 123 127
3 111 128 112
3 129 130 131
3 117 115 132
3 133 117 134
3 135 120 136
3 122 135 137
3 125 138 139
3 127 125 140
3 141 129 142
3 143 144 145
3 146 147 148
3 147 149 150
3 151 152 153
3 152 154 155
3 156 157 158
3 157 159 160
3 144 161 162
3 163 164 165
3 166 167 146
3 167 168 147
3 169 170 151
3 170 171 154
3 172 173 157
3 173 174 159
3 175 163 165
3 176 177 178
3 179 180 181
3 180 182 183
3 184 185 186
3 185 187 188
3 189 190 191
3 190 192 193
3 194 176 178
3 195 196 176
3 197 198 179
3 198 199 180
3 200 201 184
3 201 202 187
3 203 204 190
3 204 205 192
3 206 195 176
3 207 208 196
3 209 210 198
3 210 211 199
3 212 213 201
3 213 214 201
3 215 216 203
3 216 217 204
3 218 207 206
3 219 220 207
3 221 222 209
3 222 223 210
3 224 225 212
3 225 226 214
3 227 228 216
3 228 229 217
3 230 219 207
3 231 232 220
3 233 234 222
3 234 235 223
3 236 237 225
3 237 238 225
3 239 240 227
3 240 241 228
3 242 231 230
3 243 244 232
3 245 246 247
3 246 248 249
3 250 251 237
3 251 252 237
3 253 254 255
3 254 256 257
3 258 243 242
3 259 260 261
3 262 263 246
3 263 264 248
3 265 266 267
3 266 268 267
3 269 270 253
3 270 271 254
3 272 259 273
3 274 275 260
3 276 277 263
3 277 278 264
3 279 280 266
3 280 281 266
3 282 283 269
3 283 284 270
3 285 274 272
3 286 287 288
3 289 290 291
3 292 293 294
3 295 296 297
3 298 299 300
3 293 292 301
3 302 303 304
3 305 306 307
3 308 309 310
3 311 312 313
3 314 315 316
3 317 318 319
3 320 321 322
3 323 324 325
3 326 327 328
3 329 330 331
3 332 333 334
3 335 336 337
3 338 339 340
3 341 342 343
3 344 345 346
3 347 348 349
3 350 351 352
3 353 354 355
3 339 338 356
3 351 350 357
3 358 359 360
3 361 362 363
3 1 19 2
3 4 21 5
3 3 5 7
3 9 24 10
3 26 11 10
3 16 12 14
3 28 15 16
3 19 1 18
3 19 364 20
3 21 34 22
3 5 22 23
3 24 365 25
3 366 26 25
3 29 16 27
3 42 28 29
3 364 19 30
3 32 46 33
3 34 367 35
3 22 35 36
3 38 53 39
3 55 40 39
3 43 29 41
3 368 42 43
3 46 32 45
3 46 62 47
3 49 64 50
3 48 50 52
3 53 67 54
3 69 55 54
3 60 56 58
3 72 59 60
3 62 46 61
3 74 47 63
3 66 50 65
3 77 52 66
3 79 54 68
3 54 79 70
3 58 81 71
3 60 71 73
3 61 84 63
3 63 86 75
3 65 88 76
3 66 76 78
3 68 91 80
3 93 70 80
3 83 71 82
3 96 73 83
3 86 63 85
3 98 75 87
3 90 76 89
3 101 78 90
3 103 80 92
3 80 103 94
3 82 106 95
3 83 95 97
3 85 109 87
3 369 98 99
3 102 90 100
3 370 101 102
3 371 103 104
3 103 371 105
3 106 372 107
3 95 107 108
3 109 373 99
3 131 110 112
3 117 113 115
3 133 116 117
3 135 118 120
3 118 135 122
3 124 138 125
3 123 125 127
3 128 142 112
3 112 129 131
3 134 117 132
3 374 133 134
3 375 135 136
3 135 375 137
3 138 376 139
3 125 139 140
3 129 112 142
3 144 165 145
3 147 150 148
3 149 377 150
3 152 378 153
3 378 152 155
3 379 156 158
3 158 157 160
3 165 144 162
3 164 145 165
3 167 147 146
3 168 149 147
3 170 152 151
3 152 170 154
3 156 172 157
3 157 173 159
3 162 175 165
3 177 380 178
3 180 183 181
3 182 381 183
3 185 382 186
3 382 185 188
3 383 189 191
3 191 190 193
3 384 194 178
3 196 177 176
3 198 180 179
3 199 182 180
3 201 185 184
3 185 201 187
3 189 203 190
3 190 204 192
3 194 206 176
3 195 207 196
3 197 209 198
3 198 210 199
3 200 212 201
3 214 202 201
3 216 204 203
3 217 205 204
3 207 195 206
3 220 208 207
3 222 210 209
3 223 211 210
3 225 213 212
3 213 225 214
3 215 227 216
3 216 228 217
3 218 230 207
3 219 231 220
3 221 233 222
3 222 234 223
3 224 236 225
3 238 226 225
3 240 228 227
3 241 229 228
3 231 219 230
3 231 243 232
3 385 245 247
3 247 246 249
3 236 250 237
3 252 238 237
3 254 257 255
3 256 386 257
3 243 231 242
3 387 259 261
3 245 262 246
3 246 263 248
3 388 265 267
3 268 389 267
3 270 254 253
3 271 256 254
3 259 387 273
3 259 274 260
3 262 276 263
3 263 277 264
3 265 279 266
3 281 268 266
3 283 270 269
3 284 271 270
3 274 259 272
3 390 286 288
3 318 391 319
3 392 393 394
3 395 396 397
3 299 398 300
3 399 293 301
3 400 302 304
3 401 305 307
3 402 308 310
3 403 311 313
3 315 404 316
3 330 405 331
3 406 320 322
3 324 407 325
3 327 408 328
3 333 409 334
3 336 410 337
3 411 338 340
3 412 341 343
3 413 344 346
3 414 347 349
3 415 350 352
3 354 416 355
3 417 339 356
3 418 419 420
3 290 421 291
3 422 361 363
3 359 423 360
